<svg xmlns="http://www.w3.org/2000/svg" xmlns:xlink="http://www.w3.org/1999/xlink" id="graph-div" width="100%" height="100%" aria-roledescription="er" role="graphics-document document" viewBox="-28.925 0 834.525 1570.4" style="max-width:100%"><style>@import url(https://cdnjs.cloudflare.com/ajax/libs/font-awesome/6.5.1/css/all.min.css);</style><style>#graph-div{fill:#333}#graph-div,#graph-div svg{font-family:&quot;trebuchet ms&quot;,verdana,arial,sans-serif;font-size:16px}#graph-div .entityBox{fill:#ececff;stroke:#9370db}#graph-div .attributeBoxOdd{fill:#fff;stroke:#9370db}#graph-div .attributeBoxEven{fill:#f2f2f2;stroke:#9370db}#graph-div .relationshipLabelBox{fill:#f9ffec;opacity:.7;background-color:#f9ffec}#graph-div .relationshipLabelBox rect{opacity:.5}#graph-div .relationshipLine{stroke:#333}#graph-div #MD_PARENT_END,#graph-div #MD_PARENT_START{fill:#f5f5f5!important;stroke:#333!important;stroke-width:1}#graph-div :root{--mermaid-font-family:&quot;trebuchet ms&quot;,verdana,arial,sans-serif}</style><defs><marker id="MD_PARENT_START" markerHeight="240" markerWidth="190" orient="auto" refX="0" refY="7"><path d="M 18,7 L9,13 L1,7 L9,1 Z"/></marker></defs><defs><marker id="MD_PARENT_END" markerHeight="28" markerWidth="20" orient="auto" refX="19" refY="7"><path d="M 18,7 L9,13 L1,7 L9,1 Z"/></marker></defs><defs><marker id="ONLY_ONE_START" markerHeight="18" markerWidth="18" orient="auto" refX="0" refY="9"><path fill="none" stroke="gray" d="M9,0 L9,18 M15,0 L15,18"/></marker></defs><defs><marker id="ONLY_ONE_END" markerHeight="18" markerWidth="18" orient="auto" refX="18" refY="9"><path fill="none" stroke="gray" d="M3,0 L3,18 M9,0 L9,18"/></marker></defs><defs><marker id="ZERO_OR_ONE_START" markerHeight="18" markerWidth="30" orient="auto" refX="0" refY="9"><circle cx="21" cy="9" r="6" fill="#fff" stroke="gray"/><path fill="none" stroke="gray" d="M9,0 L9,18"/></marker></defs><defs><marker id="ZERO_OR_ONE_END" markerHeight="18" markerWidth="30" orient="auto" refX="30" refY="9"><circle cx="9" cy="9" r="6" fill="#fff" stroke="gray"/><path fill="none" stroke="gray" d="M21,0 L21,18"/></marker></defs><defs><marker id="ONE_OR_MORE_START" markerHeight="36" markerWidth="45" orient="auto" refX="18" refY="18"><path fill="none" stroke="gray" d="M0,18 Q 18,0 36,18 Q 18,36 0,18 M42,9 L42,27"/></marker></defs><defs><marker id="ONE_OR_MORE_END" markerHeight="36" markerWidth="45" orient="auto" refX="27" refY="18"><path fill="none" stroke="gray" d="M3,9 L3,27 M9,18 Q27,0 45,18 Q27,36 9,18"/></marker></defs><defs><marker id="ZERO_OR_MORE_START" markerHeight="36" markerWidth="57" orient="auto" refX="18" refY="18"><circle cx="48" cy="18" r="6" fill="#fff" stroke="gray"/><path fill="none" stroke="gray" d="M0,18 Q18,0 36,18 Q18,36 0,18"/></marker></defs><defs><marker id="ZERO_OR_MORE_END" markerHeight="36" markerWidth="57" orient="auto" refX="39" refY="18"><circle cx="9" cy="18" r="6" fill="#fff" stroke="gray"/><path fill="none" stroke="gray" d="M21,18 Q39,0 57,18 Q39,36 21,18"/></marker></defs><path style="stroke:gray;fill:none" marker-end="url(#ZERO_OR_MORE_END)" marker-start="url(#ONLY_ONE_START)" d="M294.6,534L294.6,542.333C294.6,550.667,294.6,567.333,294.6,584C294.6,600.667,294.6,617.333,294.6,625.667L294.6,634" class="er relationshipLine"/><path style="stroke:gray;fill:none" marker-end="url(#ZERO_OR_MORE_END)" marker-start="url(#ONLY_ONE_START)" d="M217.6,366.002L186.167,402.335C154.733,438.668,91.867,511.334,60.433,572.4C29,633.467,29,682.933,29,732.4C29,781.867,29,831.333,32.36,864.4C35.72,897.467,42.441,914.133,45.801,922.467L49.161,930.8" class="er relationshipLine"/><path style="stroke:gray;fill:none" marker-end="url(#ZERO_OR_MORE_END)" marker-start="url(#ONLY_ONE_START)" d="M294.6,830.8L294.6,839.133C294.6,847.467,294.6,864.133,294.6,882.833C294.6,901.533,294.6,922.267,294.6,932.633L294.6,943" class="er relationshipLine"/><path style="stroke:gray;fill:none" marker-end="url(#ZERO_OR_MORE_END)" marker-start="url(#ONLY_ONE_START)" d="M294.6,1066.6L294.6,1076.967C294.6,1087.333,294.6,1108.067,294.6,1126.767C294.6,1145.467,294.6,1162.133,294.6,1170.467L294.6,1178.8" class="er relationshipLine"/><path style="stroke:gray;fill:none" marker-end="url(#ZERO_OR_MORE_END)" marker-start="url(#ONLY_ONE_START)" d="M230.4,792.776L214.8,807.446C199.2,822.117,168,851.459,148.516,874.463C129.031,897.467,121.262,914.133,117.378,922.467L113.494,930.8" class="er relationshipLine"/><path style="stroke:gray;fill:none" marker-end="url(#ONLY_ONE_END)" marker-start="url(#ONLY_ONE_START)" d="M358.8,777.087L383.633,794.373C408.467,811.658,458.133,846.229,482.967,873.881C507.8,901.533,507.8,922.267,507.8,932.633L507.8,943" class="er relationshipLine"/><path style="stroke:gray;fill:none" marker-end="url(#ONLY_ONE_END)" marker-start="url(#ONLY_ONE_START)" d="M564.4,977.171L576.067,971.476C587.733,965.78,611.067,954.39,625.65,948.695C640.233,943,646.067,943,651.9,953.3C657.733,963.6,663.567,984.2,663.567,1004.8C663.567,1025.4,657.733,1046,651.9,1056.3C646.067,1066.6,640.233,1066.6,625.65,1060.905C611.067,1055.21,587.733,1043.82,576.067,1038.124L564.4,1032.429" class="er relationshipLine"/><path style="stroke:gray;fill:none" marker-end="url(#ZERO_OR_MORE_END)" marker-start="url(#ONLY_ONE_START)" d="M623,1439.476L648.233,1424.963C673.467,1410.451,723.933,1381.425,749.167,1348.279C774.4,1315.133,774.4,1277.867,774.4,1240.6C774.4,1203.333,774.4,1166.067,774.4,1126.767C774.4,1087.467,774.4,1046.133,774.4,1004.8C774.4,963.467,774.4,922.133,774.4,876.733C774.4,831.333,774.4,781.867,774.4,732.4C774.4,682.933,774.4,633.467,707.267,565.778C640.133,498.089,505.867,412.179,438.733,369.224L371.6,326.268" class="er relationshipLine"/><path style="stroke:gray;fill:none" marker-end="url(#ZERO_OR_MORE_END)" marker-start="url(#ONLY_ONE_START)" d="M294.6,1302.4L294.6,1310.733C294.6,1319.067,294.6,1335.733,327.933,1359.711C361.267,1383.689,427.933,1414.979,461.267,1430.624L494.6,1446.268" class="er relationshipLine"/><g id="entity-USER-6e7e2962-0c6f-577d-a7fd-2ce3a0cfd2c8" transform="translate(217.59999084472656,20 )"><rect width="154" height="514" x="0" y="0" class="er entityBox"/><text transform="translate(77.00000333786011,13)" style="dominant-baseline:middle;text-anchor:middle;font-size:12px" id="text-entity-USER-6e7e2962-0c6f-577d-a7fd-2ce3a0cfd2c8" x="0" y="0" class="er entityLabel">USER</text><rect width="43.6" height="24.4" x="0" y="26" class="er attributeBoxOdd"/><text transform="translate(5,38.200000286102295)" style="dominant-baseline:middle;font-size:10.2px" id="text-entity-USER-6e7e2962-0c6f-577d-a7fd-2ce3a0cfd2c8-attr-1-type" x="0" y="0" class="er entityLabel">string</text><rect width="89.2" height="24.4" x="43.6" y="26" class="er attributeBoxOdd"/><text transform="translate(48.60000228881836,38.200000286102295)" style="dominant-baseline:middle;font-size:10.2px" id="text-entity-USER-6e7e2962-0c6f-577d-a7fd-2ce3a0cfd2c8-attr-1-name" x="0" y="0" class="er entityLabel">id</text><rect width="21.2" height="24.4" x="132.8" y="26" class="er attributeBoxOdd"/><text transform="translate(137.80000686645508,38.200000286102295)" style="dominant-baseline:middle;font-size:10.2px" id="text-entity-USER-6e7e2962-0c6f-577d-a7fd-2ce3a0cfd2c8-attr-1-key" x="0" y="0" class="er entityLabel">PK</text><rect width="43.6" height="24.4" x="0" y="50.4" class="er attributeBoxEven"/><text transform="translate(5,62.600000858306885)" style="dominant-baseline:middle;font-size:10.2px" id="text-entity-USER-6e7e2962-0c6f-577d-a7fd-2ce3a0cfd2c8-attr-2-type" x="0" y="0" class="er entityLabel">string</text><rect width="89.2" height="24.4" x="43.6" y="50.4" class="er attributeBoxEven"/><text transform="translate(48.60000228881836,62.600000858306885)" style="dominant-baseline:middle;font-size:10.2px" id="text-entity-USER-6e7e2962-0c6f-577d-a7fd-2ce3a0cfd2c8-attr-2-name" x="0" y="0" class="er entityLabel">name</text><rect width="21.2" height="24.4" x="132.8" y="50.4" class="er attributeBoxEven"/><rect width="43.6" height="24.4" x="0" y="74.8" class="er attributeBoxOdd"/><text transform="translate(5,87.00000143051147)" style="dominant-baseline:middle;font-size:10.2px" id="text-entity-USER-6e7e2962-0c6f-577d-a7fd-2ce3a0cfd2c8-attr-3-type" x="0" y="0" class="er entityLabel">string</text><rect width="89.2" height="24.4" x="43.6" y="74.8" class="er attributeBoxOdd"/><text transform="translate(48.60000228881836,87.00000143051147)" style="dominant-baseline:middle;font-size:10.2px" id="text-entity-USER-6e7e2962-0c6f-577d-a7fd-2ce3a0cfd2c8-attr-3-name" x="0" y="0" class="er entityLabel">slug</text><rect width="21.2" height="24.4" x="132.8" y="74.8" class="er attributeBoxOdd"/><rect width="43.6" height="24.4" x="0" y="99.2" class="er attributeBoxEven"/><text transform="translate(5,111.40000200271606)" style="dominant-baseline:middle;font-size:10.2px" id="text-entity-USER-6e7e2962-0c6f-577d-a7fd-2ce3a0cfd2c8-attr-4-type" x="0" y="0" class="er entityLabel">string</text><rect width="89.2" height="24.4" x="43.6" y="99.2" class="er attributeBoxEven"/><text transform="translate(48.60000228881836,111.40000200271606)" style="dominant-baseline:middle;font-size:10.2px" id="text-entity-USER-6e7e2962-0c6f-577d-a7fd-2ce3a0cfd2c8-attr-4-name" x="0" y="0" class="er entityLabel">bio</text><rect width="21.2" height="24.4" x="132.8" y="99.2" class="er attributeBoxEven"/><rect width="43.6" height="24.4" x="0" y="123.6" class="er attributeBoxOdd"/><text transform="translate(5,135.80000257492065)" style="dominant-baseline:middle;font-size:10.2px" id="text-entity-USER-6e7e2962-0c6f-577d-a7fd-2ce3a0cfd2c8-attr-5-type" x="0" y="0" class="er entityLabel">string</text><rect width="89.2" height="24.4" x="43.6" y="123.6" class="er attributeBoxOdd"/><text transform="translate(48.60000228881836,135.80000257492065)" style="dominant-baseline:middle;font-size:10.2px" id="text-entity-USER-6e7e2962-0c6f-577d-a7fd-2ce3a0cfd2c8-attr-5-name" x="0" y="0" class="er entityLabel">email</text><rect width="21.2" height="24.4" x="132.8" y="123.6" class="er attributeBoxOdd"/><rect width="43.6" height="24.4" x="0" y="148" class="er attributeBoxEven"/><text transform="translate(5,160.20000314712524)" style="dominant-baseline:middle;font-size:10.2px" id="text-entity-USER-6e7e2962-0c6f-577d-a7fd-2ce3a0cfd2c8-attr-6-type" x="0" y="0" class="er entityLabel">string</text><rect width="89.2" height="24.4" x="43.6" y="148" class="er attributeBoxEven"/><text transform="translate(48.60000228881836,160.20000314712524)" style="dominant-baseline:middle;font-size:10.2px" id="text-entity-USER-6e7e2962-0c6f-577d-a7fd-2ce3a0cfd2c8-attr-6-name" x="0" y="0" class="er entityLabel">password</text><rect width="21.2" height="24.4" x="132.8" y="148" class="er attributeBoxEven"/><rect width="43.6" height="24.4" x="0" y="172.4" class="er attributeBoxOdd"/><text transform="translate(5,184.60000371932983)" style="dominant-baseline:middle;font-size:10.2px" id="text-entity-USER-6e7e2962-0c6f-577d-a7fd-2ce3a0cfd2c8-attr-7-type" x="0" y="0" class="er entityLabel">string</text><rect width="89.2" height="24.4" x="43.6" y="172.4" class="er attributeBoxOdd"/><text transform="translate(48.60000228881836,184.60000371932983)" style="dominant-baseline:middle;font-size:10.2px" id="text-entity-USER-6e7e2962-0c6f-577d-a7fd-2ce3a0cfd2c8-attr-7-name" x="0" y="0" class="er entityLabel">picture</text><rect width="21.2" height="24.4" x="132.8" y="172.4" class="er attributeBoxOdd"/><rect width="43.6" height="24.4" x="0" y="196.8" class="er attributeBoxEven"/><text transform="translate(5,209.00000429153442)" style="dominant-baseline:middle;font-size:10.2px" id="text-entity-USER-6e7e2962-0c6f-577d-a7fd-2ce3a0cfd2c8-attr-8-type" x="0" y="0" class="er entityLabel">string</text><rect width="89.2" height="24.4" x="43.6" y="196.8" class="er attributeBoxEven"/><text transform="translate(48.60000228881836,209.00000429153442)" style="dominant-baseline:middle;font-size:10.2px" id="text-entity-USER-6e7e2962-0c6f-577d-a7fd-2ce3a0cfd2c8-attr-8-name" x="0" y="0" class="er entityLabel">phone</text><rect width="21.2" height="24.4" x="132.8" y="196.8" class="er attributeBoxEven"/><rect width="43.6" height="24.4" x="0" y="221.2" class="er attributeBoxOdd"/><text transform="translate(5,233.400004863739)" style="dominant-baseline:middle;font-size:10.2px" id="text-entity-USER-6e7e2962-0c6f-577d-a7fd-2ce3a0cfd2c8-attr-9-type" x="0" y="0" class="er entityLabel">string</text><rect width="89.2" height="24.4" x="43.6" y="221.2" class="er attributeBoxOdd"/><text transform="translate(48.60000228881836,233.400004863739)" style="dominant-baseline:middle;font-size:10.2px" id="text-entity-USER-6e7e2962-0c6f-577d-a7fd-2ce3a0cfd2c8-attr-9-name" x="0" y="0" class="er entityLabel">country</text><rect width="21.2" height="24.4" x="132.8" y="221.2" class="er attributeBoxOdd"/><rect width="43.6" height="24.4" x="0" y="245.6" class="er attributeBoxEven"/><text transform="translate(5,257.8000054359436)" style="dominant-baseline:middle;font-size:10.2px" id="text-entity-USER-6e7e2962-0c6f-577d-a7fd-2ce3a0cfd2c8-attr-10-type" x="0" y="0" class="er entityLabel">string</text><rect width="89.2" height="24.4" x="43.6" y="245.6" class="er attributeBoxEven"/><text transform="translate(48.60000228881836,257.8000054359436)" style="dominant-baseline:middle;font-size:10.2px" id="text-entity-USER-6e7e2962-0c6f-577d-a7fd-2ce3a0cfd2c8-attr-10-name" x="0" y="0" class="er entityLabel">address</text><rect width="21.2" height="24.4" x="132.8" y="245.6" class="er attributeBoxEven"/><rect width="43.6" height="24.4" x="0" y="270" class="er attributeBoxOdd"/><text transform="translate(5,282.2000060081482)" style="dominant-baseline:middle;font-size:10.2px" id="text-entity-USER-6e7e2962-0c6f-577d-a7fd-2ce3a0cfd2c8-attr-11-type" x="0" y="0" class="er entityLabel">string</text><rect width="89.2" height="24.4" x="43.6" y="270" class="er attributeBoxOdd"/><text transform="translate(48.60000228881836,282.2000060081482)" style="dominant-baseline:middle;font-size:10.2px" id="text-entity-USER-6e7e2962-0c6f-577d-a7fd-2ce3a0cfd2c8-attr-11-name" x="0" y="0" class="er entityLabel">gender</text><rect width="21.2" height="24.4" x="132.8" y="270" class="er attributeBoxOdd"/><rect width="43.6" height="24.4" x="0" y="294.4" class="er attributeBoxEven"/><text transform="translate(5,306.6000065803528)" style="dominant-baseline:middle;font-size:10.2px" id="text-entity-USER-6e7e2962-0c6f-577d-a7fd-2ce3a0cfd2c8-attr-12-type" x="0" y="0" class="er entityLabel">date</text><rect width="89.2" height="24.4" x="43.6" y="294.4" class="er attributeBoxEven"/><text transform="translate(48.60000228881836,306.6000065803528)" style="dominant-baseline:middle;font-size:10.2px" id="text-entity-USER-6e7e2962-0c6f-577d-a7fd-2ce3a0cfd2c8-attr-12-name" x="0" y="0" class="er entityLabel">dob</text><rect width="21.2" height="24.4" x="132.8" y="294.4" class="er attributeBoxEven"/><rect width="43.6" height="24.4" x="0" y="318.8" class="er attributeBoxOdd"/><text transform="translate(5,331.0000071525574)" style="dominant-baseline:middle;font-size:10.2px" id="text-entity-USER-6e7e2962-0c6f-577d-a7fd-2ce3a0cfd2c8-attr-13-type" x="0" y="0" class="er entityLabel">enum</text><rect width="89.2" height="24.4" x="43.6" y="318.8" class="er attributeBoxOdd"/><text transform="translate(48.60000228881836,331.0000071525574)" style="dominant-baseline:middle;font-size:10.2px" id="text-entity-USER-6e7e2962-0c6f-577d-a7fd-2ce3a0cfd2c8-attr-13-name" x="0" y="0" class="er entityLabel">role</text><rect width="21.2" height="24.4" x="132.8" y="318.8" class="er attributeBoxOdd"/><rect width="43.6" height="24.4" x="0" y="343.2" class="er attributeBoxEven"/><text transform="translate(5,355.40000772476196)" style="dominant-baseline:middle;font-size:10.2px" id="text-entity-USER-6e7e2962-0c6f-577d-a7fd-2ce3a0cfd2c8-attr-14-type" x="0" y="0" class="er entityLabel">integer</text><rect width="89.2" height="24.4" x="43.6" y="343.2" class="er attributeBoxEven"/><text transform="translate(48.60000228881836,355.40000772476196)" style="dominant-baseline:middle;font-size:10.2px" id="text-entity-USER-6e7e2962-0c6f-577d-a7fd-2ce3a0cfd2c8-attr-14-name" x="0" y="0" class="er entityLabel">status</text><rect width="21.2" height="24.4" x="132.8" y="343.2" class="er attributeBoxEven"/><rect width="43.6" height="24.4" x="0" y="367.6" class="er attributeBoxOdd"/><text transform="translate(5,379.80000829696655)" style="dominant-baseline:middle;font-size:10.2px" id="text-entity-USER-6e7e2962-0c6f-577d-a7fd-2ce3a0cfd2c8-attr-15-type" x="0" y="0" class="er entityLabel">date</text><rect width="89.2" height="24.4" x="43.6" y="367.6" class="er attributeBoxOdd"/><text transform="translate(48.60000228881836,379.80000829696655)" style="dominant-baseline:middle;font-size:10.2px" id="text-entity-USER-6e7e2962-0c6f-577d-a7fd-2ce3a0cfd2c8-attr-15-name" x="0" y="0" class="er entityLabel">approved_at</text><rect width="21.2" height="24.4" x="132.8" y="367.6" class="er attributeBoxOdd"/><rect width="43.6" height="24.4" x="0" y="392" class="er attributeBoxEven"/><text transform="translate(5,404.20000886917114)" style="dominant-baseline:middle;font-size:10.2px" id="text-entity-USER-6e7e2962-0c6f-577d-a7fd-2ce3a0cfd2c8-attr-16-type" x="0" y="0" class="er entityLabel">date</text><rect width="89.2" height="24.4" x="43.6" y="392" class="er attributeBoxEven"/><text transform="translate(48.60000228881836,404.20000886917114)" style="dominant-baseline:middle;font-size:10.2px" id="text-entity-USER-6e7e2962-0c6f-577d-a7fd-2ce3a0cfd2c8-attr-16-name" x="0" y="0" class="er entityLabel">rejected_at</text><rect width="21.2" height="24.4" x="132.8" y="392" class="er attributeBoxEven"/><rect width="43.6" height="24.4" x="0" y="416.4" class="er attributeBoxOdd"/><text transform="translate(5,428.60000944137573)" style="dominant-baseline:middle;font-size:10.2px" id="text-entity-USER-6e7e2962-0c6f-577d-a7fd-2ce3a0cfd2c8-attr-17-type" x="0" y="0" class="er entityLabel">date</text><rect width="89.2" height="24.4" x="43.6" y="416.4" class="er attributeBoxOdd"/><text transform="translate(48.60000228881836,428.60000944137573)" style="dominant-baseline:middle;font-size:10.2px" id="text-entity-USER-6e7e2962-0c6f-577d-a7fd-2ce3a0cfd2c8-attr-17-name" x="0" y="0" class="er entityLabel">removed_at</text><rect width="21.2" height="24.4" x="132.8" y="416.4" class="er attributeBoxOdd"/><rect width="43.6" height="24.4" x="0" y="440.8" class="er attributeBoxEven"/><text transform="translate(5,453.0000100135803)" style="dominant-baseline:middle;font-size:10.2px" id="text-entity-USER-6e7e2962-0c6f-577d-a7fd-2ce3a0cfd2c8-attr-18-type" x="0" y="0" class="er entityLabel">string</text><rect width="89.2" height="24.4" x="43.6" y="440.8" class="er attributeBoxEven"/><text transform="translate(48.60000228881836,453.0000100135803)" style="dominant-baseline:middle;font-size:10.2px" id="text-entity-USER-6e7e2962-0c6f-577d-a7fd-2ce3a0cfd2c8-attr-18-name" x="0" y="0" class="er entityLabel">rejection_reason</text><rect width="21.2" height="24.4" x="132.8" y="440.8" class="er attributeBoxEven"/><rect width="43.6" height="24.4" x="0" y="465.2" class="er attributeBoxOdd"/><text transform="translate(5,477.4000105857849)" style="dominant-baseline:middle;font-size:10.2px" id="text-entity-USER-6e7e2962-0c6f-577d-a7fd-2ce3a0cfd2c8-attr-19-type" x="0" y="0" class="er entityLabel">date</text><rect width="89.2" height="24.4" x="43.6" y="465.2" class="er attributeBoxOdd"/><text transform="translate(48.60000228881836,477.4000105857849)" style="dominant-baseline:middle;font-size:10.2px" id="text-entity-USER-6e7e2962-0c6f-577d-a7fd-2ce3a0cfd2c8-attr-19-name" x="0" y="0" class="er entityLabel">created_at</text><rect width="21.2" height="24.4" x="132.8" y="465.2" class="er attributeBoxOdd"/><rect width="43.6" height="24.4" x="0" y="489.6" class="er attributeBoxEven"/><text transform="translate(5,501.8000111579895)" style="dominant-baseline:middle;font-size:10.2px" id="text-entity-USER-6e7e2962-0c6f-577d-a7fd-2ce3a0cfd2c8-attr-20-type" x="0" y="0" class="er entityLabel">date</text><rect width="89.2" height="24.4" x="43.6" y="489.6" class="er attributeBoxEven"/><text transform="translate(48.60000228881836,501.8000111579895)" style="dominant-baseline:middle;font-size:10.2px" id="text-entity-USER-6e7e2962-0c6f-577d-a7fd-2ce3a0cfd2c8-attr-20-name" x="0" y="0" class="er entityLabel">updated_at</text><rect width="21.2" height="24.4" x="132.8" y="489.6" class="er attributeBoxEven"/></g><g id="entity-COURSE-94e4e0ca-538f-5eec-8201-7eda2bcf423a" transform="translate(230.4000015258789,634 )"><rect width="128.4" height="196.8" x="0" y="0" class="er entityBox"/><text transform="translate(64.2000002861023,13)" style="dominant-baseline:middle;text-anchor:middle;font-size:12px" id="text-entity-COURSE-94e4e0ca-538f-5eec-8201-7eda2bcf423a" x="0" y="0" class="er entityLabel">COURSE</text><rect width="37.2" height="24.4" x="0" y="26" class="er attributeBoxOdd"/><text transform="translate(5,38.200000286102295)" style="dominant-baseline:middle;font-size:10.2px" id="text-entity-COURSE-94e4e0ca-538f-5eec-8201-7eda2bcf423a-attr-1-type" x="0" y="0" class="er entityLabel">int</text><rect width="70" height="24.4" x="37.2" y="26" class="er attributeBoxOdd"/><text transform="translate(42.20000076293945,38.200000286102295)" style="dominant-baseline:middle;font-size:10.2px" id="text-entity-COURSE-94e4e0ca-538f-5eec-8201-7eda2bcf423a-attr-1-name" x="0" y="0" class="er entityLabel">id</text><rect width="21.2" height="24.4" x="107.2" y="26" class="er attributeBoxOdd"/><text transform="translate(112.20000076293945,38.200000286102295)" style="dominant-baseline:middle;font-size:10.2px" id="text-entity-COURSE-94e4e0ca-538f-5eec-8201-7eda2bcf423a-attr-1-key" x="0" y="0" class="er entityLabel">PK</text><rect width="37.2" height="24.4" x="0" y="50.4" class="er attributeBoxEven"/><text transform="translate(5,62.600000858306885)" style="dominant-baseline:middle;font-size:10.2px" id="text-entity-COURSE-94e4e0ca-538f-5eec-8201-7eda2bcf423a-attr-2-type" x="0" y="0" class="er entityLabel">string</text><rect width="70" height="24.4" x="37.2" y="50.4" class="er attributeBoxEven"/><text transform="translate(42.20000076293945,62.600000858306885)" style="dominant-baseline:middle;font-size:10.2px" id="text-entity-COURSE-94e4e0ca-538f-5eec-8201-7eda2bcf423a-attr-2-name" x="0" y="0" class="er entityLabel">title</text><rect width="21.2" height="24.4" x="107.2" y="50.4" class="er attributeBoxEven"/><rect width="37.2" height="24.4" x="0" y="74.8" class="er attributeBoxOdd"/><text transform="translate(5,87.00000143051147)" style="dominant-baseline:middle;font-size:10.2px" id="text-entity-COURSE-94e4e0ca-538f-5eec-8201-7eda2bcf423a-attr-3-type" x="0" y="0" class="er entityLabel">string</text><rect width="70" height="24.4" x="37.2" y="74.8" class="er attributeBoxOdd"/><text transform="translate(42.20000076293945,87.00000143051147)" style="dominant-baseline:middle;font-size:10.2px" id="text-entity-COURSE-94e4e0ca-538f-5eec-8201-7eda2bcf423a-attr-3-name" x="0" y="0" class="er entityLabel">slug</text><rect width="21.2" height="24.4" x="107.2" y="74.8" class="er attributeBoxOdd"/><rect width="37.2" height="24.4" x="0" y="99.2" class="er attributeBoxEven"/><text transform="translate(5,111.40000200271606)" style="dominant-baseline:middle;font-size:10.2px" id="text-entity-COURSE-94e4e0ca-538f-5eec-8201-7eda2bcf423a-attr-4-type" x="0" y="0" class="er entityLabel">string</text><rect width="70" height="24.4" x="37.2" y="99.2" class="er attributeBoxEven"/><text transform="translate(42.20000076293945,111.40000200271606)" style="dominant-baseline:middle;font-size:10.2px" id="text-entity-COURSE-94e4e0ca-538f-5eec-8201-7eda2bcf423a-attr-4-name" x="0" y="0" class="er entityLabel">description</text><rect width="21.2" height="24.4" x="107.2" y="99.2" class="er attributeBoxEven"/><rect width="37.2" height="24.4" x="0" y="123.6" class="er attributeBoxOdd"/><text transform="translate(5,135.80000257492065)" style="dominant-baseline:middle;font-size:10.2px" id="text-entity-COURSE-94e4e0ca-538f-5eec-8201-7eda2bcf423a-attr-5-type" x="0" y="0" class="er entityLabel">int</text><rect width="70" height="24.4" x="37.2" y="123.6" class="er attributeBoxOdd"/><text transform="translate(42.20000076293945,135.80000257492065)" style="dominant-baseline:middle;font-size:10.2px" id="text-entity-COURSE-94e4e0ca-538f-5eec-8201-7eda2bcf423a-attr-5-name" x="0" y="0" class="er entityLabel">category_id</text><rect width="21.2" height="24.4" x="107.2" y="123.6" class="er attributeBoxOdd"/><rect width="37.2" height="24.4" x="0" y="148" class="er attributeBoxEven"/><text transform="translate(5,160.20000314712524)" style="dominant-baseline:middle;font-size:10.2px" id="text-entity-COURSE-94e4e0ca-538f-5eec-8201-7eda2bcf423a-attr-6-type" x="0" y="0" class="er entityLabel">int</text><rect width="70" height="24.4" x="37.2" y="148" class="er attributeBoxEven"/><text transform="translate(42.20000076293945,160.20000314712524)" style="dominant-baseline:middle;font-size:10.2px" id="text-entity-COURSE-94e4e0ca-538f-5eec-8201-7eda2bcf423a-attr-6-name" x="0" y="0" class="er entityLabel">instructor_id</text><rect width="21.2" height="24.4" x="107.2" y="148" class="er attributeBoxEven"/><rect width="37.2" height="24.4" x="0" y="172.4" class="er attributeBoxOdd"/><text transform="translate(5,184.60000371932983)" style="dominant-baseline:middle;font-size:10.2px" id="text-entity-COURSE-94e4e0ca-538f-5eec-8201-7eda2bcf423a-attr-7-type" x="0" y="0" class="er entityLabel">string</text><rect width="70" height="24.4" x="37.2" y="172.4" class="er attributeBoxOdd"/><text transform="translate(42.20000076293945,184.60000371932983)" style="dominant-baseline:middle;font-size:10.2px" id="text-entity-COURSE-94e4e0ca-538f-5eec-8201-7eda2bcf423a-attr-7-name" x="0" y="0" class="er entityLabel">language</text><rect width="21.2" height="24.4" x="107.2" y="172.4" class="er attributeBoxOdd"/></g><g id="entity-REVIEW-39f1e8d0-9e3b-5c04-a665-2df785f19ed7" transform="translate(20,930.8000030517578 )"><rect width="118" height="148" x="0" y="0" class="er entityBox"/><text transform="translate(59.000001430511475,13)" style="dominant-baseline:middle;text-anchor:middle;font-size:12px" id="text-entity-REVIEW-39f1e8d0-9e3b-5c04-a665-2df785f19ed7" x="0" y="0" class="er entityLabel">REVIEW</text><rect width="37.2" height="24.4" x="0" y="26" class="er attributeBoxOdd"/><text transform="translate(5,38.200000286102295)" style="dominant-baseline:middle;font-size:10.2px" id="text-entity-REVIEW-39f1e8d0-9e3b-5c04-a665-2df785f19ed7-attr-1-type" x="0" y="0" class="er entityLabel">int</text><rect width="59.6" height="24.4" x="37.2" y="26" class="er attributeBoxOdd"/><text transform="translate(42.20000076293945,38.200000286102295)" style="dominant-baseline:middle;font-size:10.2px" id="text-entity-REVIEW-39f1e8d0-9e3b-5c04-a665-2df785f19ed7-attr-1-name" x="0" y="0" class="er entityLabel">id</text><rect width="21.2" height="24.4" x="96.8" y="26" class="er attributeBoxOdd"/><text transform="translate(101.80000305175781,38.200000286102295)" style="dominant-baseline:middle;font-size:10.2px" id="text-entity-REVIEW-39f1e8d0-9e3b-5c04-a665-2df785f19ed7-attr-1-key" x="0" y="0" class="er entityLabel">PK</text><rect width="37.2" height="24.4" x="0" y="50.4" class="er attributeBoxEven"/><text transform="translate(5,62.600000858306885)" style="dominant-baseline:middle;font-size:10.2px" id="text-entity-REVIEW-39f1e8d0-9e3b-5c04-a665-2df785f19ed7-attr-2-type" x="0" y="0" class="er entityLabel">string</text><rect width="59.6" height="24.4" x="37.2" y="50.4" class="er attributeBoxEven"/><text transform="translate(42.20000076293945,62.600000858306885)" style="dominant-baseline:middle;font-size:10.2px" id="text-entity-REVIEW-39f1e8d0-9e3b-5c04-a665-2df785f19ed7-attr-2-name" x="0" y="0" class="er entityLabel">content</text><rect width="21.2" height="24.4" x="96.8" y="50.4" class="er attributeBoxEven"/><rect width="37.2" height="24.4" x="0" y="74.8" class="er attributeBoxOdd"/><text transform="translate(5,87.00000143051147)" style="dominant-baseline:middle;font-size:10.2px" id="text-entity-REVIEW-39f1e8d0-9e3b-5c04-a665-2df785f19ed7-attr-3-type" x="0" y="0" class="er entityLabel">float</text><rect width="59.6" height="24.4" x="37.2" y="74.8" class="er attributeBoxOdd"/><text transform="translate(42.20000076293945,87.00000143051147)" style="dominant-baseline:middle;font-size:10.2px" id="text-entity-REVIEW-39f1e8d0-9e3b-5c04-a665-2df785f19ed7-attr-3-name" x="0" y="0" class="er entityLabel">rating</text><rect width="21.2" height="24.4" x="96.8" y="74.8" class="er attributeBoxOdd"/><rect width="37.2" height="24.4" x="0" y="99.2" class="er attributeBoxEven"/><text transform="translate(5,111.40000200271606)" style="dominant-baseline:middle;font-size:10.2px" id="text-entity-REVIEW-39f1e8d0-9e3b-5c04-a665-2df785f19ed7-attr-4-type" x="0" y="0" class="er entityLabel">int</text><rect width="59.6" height="24.4" x="37.2" y="99.2" class="er attributeBoxEven"/><text transform="translate(42.20000076293945,111.40000200271606)" style="dominant-baseline:middle;font-size:10.2px" id="text-entity-REVIEW-39f1e8d0-9e3b-5c04-a665-2df785f19ed7-attr-4-name" x="0" y="0" class="er entityLabel">student_id</text><rect width="21.2" height="24.4" x="96.8" y="99.2" class="er attributeBoxEven"/><rect width="37.2" height="24.4" x="0" y="123.6" class="er attributeBoxOdd"/><text transform="translate(5,135.80000257492065)" style="dominant-baseline:middle;font-size:10.2px" id="text-entity-REVIEW-39f1e8d0-9e3b-5c04-a665-2df785f19ed7-attr-5-type" x="0" y="0" class="er entityLabel">int</text><rect width="59.6" height="24.4" x="37.2" y="123.6" class="er attributeBoxOdd"/><text transform="translate(42.20000076293945,135.80000257492065)" style="dominant-baseline:middle;font-size:10.2px" id="text-entity-REVIEW-39f1e8d0-9e3b-5c04-a665-2df785f19ed7-attr-5-name" x="0" y="0" class="er entityLabel">course_id</text><rect width="21.2" height="24.4" x="96.8" y="123.6" class="er attributeBoxOdd"/></g><g id="entity-SECTION-b26021d3-b26c-54b6-a477-eddbfc646bcf" transform="translate(238,943.0000038146973 )"><rect width="113.2" height="123.6" x="0" y="0" class="er entityBox"/><text transform="translate(56.59999990463257,13)" style="dominant-baseline:middle;text-anchor:middle;font-size:12px" id="text-entity-SECTION-b26021d3-b26c-54b6-a477-eddbfc646bcf" x="0" y="0" class="er entityLabel">SECTION</text><rect width="37.2" height="24.4" x="0" y="26" class="er attributeBoxOdd"/><text transform="translate(5,38.200000286102295)" style="dominant-baseline:middle;font-size:10.2px" id="text-entity-SECTION-b26021d3-b26c-54b6-a477-eddbfc646bcf-attr-1-type" x="0" y="0" class="er entityLabel">int</text><rect width="54.8" height="24.4" x="37.2" y="26" class="er attributeBoxOdd"/><text transform="translate(42.20000076293945,38.200000286102295)" style="dominant-baseline:middle;font-size:10.2px" id="text-entity-SECTION-b26021d3-b26c-54b6-a477-eddbfc646bcf-attr-1-name" x="0" y="0" class="er entityLabel">id</text><rect width="21.2" height="24.4" x="92" y="26" class="er attributeBoxOdd"/><text transform="translate(97,38.200000286102295)" style="dominant-baseline:middle;font-size:10.2px" id="text-entity-SECTION-b26021d3-b26c-54b6-a477-eddbfc646bcf-attr-1-key" x="0" y="0" class="er entityLabel">PK</text><rect width="37.2" height="24.4" x="0" y="50.4" class="er attributeBoxEven"/><text transform="translate(5,62.600000858306885)" style="dominant-baseline:middle;font-size:10.2px" id="text-entity-SECTION-b26021d3-b26c-54b6-a477-eddbfc646bcf-attr-2-type" x="0" y="0" class="er entityLabel">string</text><rect width="54.8" height="24.4" x="37.2" y="50.4" class="er attributeBoxEven"/><text transform="translate(42.20000076293945,62.600000858306885)" style="dominant-baseline:middle;font-size:10.2px" id="text-entity-SECTION-b26021d3-b26c-54b6-a477-eddbfc646bcf-attr-2-name" x="0" y="0" class="er entityLabel">title</text><rect width="21.2" height="24.4" x="92" y="50.4" class="er attributeBoxEven"/><rect width="37.2" height="24.4" x="0" y="74.8" class="er attributeBoxOdd"/><text transform="translate(5,87.00000143051147)" style="dominant-baseline:middle;font-size:10.2px" id="text-entity-SECTION-b26021d3-b26c-54b6-a477-eddbfc646bcf-attr-3-type" x="0" y="0" class="er entityLabel">string</text><rect width="54.8" height="24.4" x="37.2" y="74.8" class="er attributeBoxOdd"/><text transform="translate(42.20000076293945,87.00000143051147)" style="dominant-baseline:middle;font-size:10.2px" id="text-entity-SECTION-b26021d3-b26c-54b6-a477-eddbfc646bcf-attr-3-name" x="0" y="0" class="er entityLabel">slug</text><rect width="21.2" height="24.4" x="92" y="74.8" class="er attributeBoxOdd"/><rect width="37.2" height="24.4" x="0" y="99.2" class="er attributeBoxEven"/><text transform="translate(5,111.40000200271606)" style="dominant-baseline:middle;font-size:10.2px" id="text-entity-SECTION-b26021d3-b26c-54b6-a477-eddbfc646bcf-attr-4-type" x="0" y="0" class="er entityLabel">int</text><rect width="54.8" height="24.4" x="37.2" y="99.2" class="er attributeBoxEven"/><text transform="translate(42.20000076293945,111.40000200271606)" style="dominant-baseline:middle;font-size:10.2px" id="text-entity-SECTION-b26021d3-b26c-54b6-a477-eddbfc646bcf-attr-4-name" x="0" y="0" class="er entityLabel">course_id</text><rect width="21.2" height="24.4" x="92" y="99.2" class="er attributeBoxEven"/></g><g id="entity-LECTURE-62455f9c-7c91-5718-8fad-5e0f52a255a2" transform="translate(236.39999771118164,1178.8000030517578 )"><rect width="116.4" height="123.6" x="0" y="0" class="er entityBox"/><text transform="translate(58.200000286102295,13)" style="dominant-baseline:middle;text-anchor:middle;font-size:12px" id="text-entity-LECTURE-62455f9c-7c91-5718-8fad-5e0f52a255a2" x="0" y="0" class="er entityLabel">LECTURE</text><rect width="37.2" height="24.4" x="0" y="26" class="er attributeBoxOdd"/><text transform="translate(5,38.200000286102295)" style="dominant-baseline:middle;font-size:10.2px" id="text-entity-LECTURE-62455f9c-7c91-5718-8fad-5e0f52a255a2-attr-1-type" x="0" y="0" class="er entityLabel">int</text><rect width="58" height="24.4" x="37.2" y="26" class="er attributeBoxOdd"/><text transform="translate(42.20000076293945,38.200000286102295)" style="dominant-baseline:middle;font-size:10.2px" id="text-entity-LECTURE-62455f9c-7c91-5718-8fad-5e0f52a255a2-attr-1-name" x="0" y="0" class="er entityLabel">id</text><rect width="21.2" height="24.4" x="95.2" y="26" class="er attributeBoxOdd"/><text transform="translate(100.20000076293945,38.200000286102295)" style="dominant-baseline:middle;font-size:10.2px" id="text-entity-LECTURE-62455f9c-7c91-5718-8fad-5e0f52a255a2-attr-1-key" x="0" y="0" class="er entityLabel">PK</text><rect width="37.2" height="24.4" x="0" y="50.4" class="er attributeBoxEven"/><text transform="translate(5,62.600000858306885)" style="dominant-baseline:middle;font-size:10.2px" id="text-entity-LECTURE-62455f9c-7c91-5718-8fad-5e0f52a255a2-attr-2-type" x="0" y="0" class="er entityLabel">string</text><rect width="58" height="24.4" x="37.2" y="50.4" class="er attributeBoxEven"/><text transform="translate(42.20000076293945,62.600000858306885)" style="dominant-baseline:middle;font-size:10.2px" id="text-entity-LECTURE-62455f9c-7c91-5718-8fad-5e0f52a255a2-attr-2-name" x="0" y="0" class="er entityLabel">title</text><rect width="21.2" height="24.4" x="95.2" y="50.4" class="er attributeBoxEven"/><rect width="37.2" height="24.4" x="0" y="74.8" class="er attributeBoxOdd"/><text transform="translate(5,87.00000143051147)" style="dominant-baseline:middle;font-size:10.2px" id="text-entity-LECTURE-62455f9c-7c91-5718-8fad-5e0f52a255a2-attr-3-type" x="0" y="0" class="er entityLabel">string</text><rect width="58" height="24.4" x="37.2" y="74.8" class="er attributeBoxOdd"/><text transform="translate(42.20000076293945,87.00000143051147)" style="dominant-baseline:middle;font-size:10.2px" id="text-entity-LECTURE-62455f9c-7c91-5718-8fad-5e0f52a255a2-attr-3-name" x="0" y="0" class="er entityLabel">video_url</text><rect width="21.2" height="24.4" x="95.2" y="74.8" class="er attributeBoxOdd"/><rect width="37.2" height="24.4" x="0" y="99.2" class="er attributeBoxEven"/><text transform="translate(5,111.40000200271606)" style="dominant-baseline:middle;font-size:10.2px" id="text-entity-LECTURE-62455f9c-7c91-5718-8fad-5e0f52a255a2-attr-4-type" x="0" y="0" class="er entityLabel">int</text><rect width="58" height="24.4" x="37.2" y="99.2" class="er attributeBoxEven"/><text transform="translate(42.20000076293945,111.40000200271606)" style="dominant-baseline:middle;font-size:10.2px" id="text-entity-LECTURE-62455f9c-7c91-5718-8fad-5e0f52a255a2-attr-4-name" x="0" y="0" class="er entityLabel">section_id</text><rect width="21.2" height="24.4" x="95.2" y="99.2" class="er attributeBoxEven"/></g><g id="entity-CATEGORY-4496cc9e-da1f-5994-ab05-87aa395a773d" transform="translate(451.1999969482422,943.0000038146973 )"><rect width="113.2" height="123.6" x="0" y="0" class="er entityBox"/><text transform="translate(56.59999990463257,13)" style="dominant-baseline:middle;text-anchor:middle;font-size:12px" id="text-entity-CATEGORY-4496cc9e-da1f-5994-ab05-87aa395a773d" x="0" y="0" class="er entityLabel">CATEGORY</text><rect width="37.2" height="24.4" x="0" y="26" class="er attributeBoxOdd"/><text transform="translate(5,38.200000286102295)" style="dominant-baseline:middle;font-size:10.2px" id="text-entity-CATEGORY-4496cc9e-da1f-5994-ab05-87aa395a773d-attr-1-type" x="0" y="0" class="er entityLabel">int</text><rect width="54.8" height="24.4" x="37.2" y="26" class="er attributeBoxOdd"/><text transform="translate(42.20000076293945,38.200000286102295)" style="dominant-baseline:middle;font-size:10.2px" id="text-entity-CATEGORY-4496cc9e-da1f-5994-ab05-87aa395a773d-attr-1-name" x="0" y="0" class="er entityLabel">id</text><rect width="21.2" height="24.4" x="92" y="26" class="er attributeBoxOdd"/><text transform="translate(97,38.200000286102295)" style="dominant-baseline:middle;font-size:10.2px" id="text-entity-CATEGORY-4496cc9e-da1f-5994-ab05-87aa395a773d-attr-1-key" x="0" y="0" class="er entityLabel">PK</text><rect width="37.2" height="24.4" x="0" y="50.4" class="er attributeBoxEven"/><text transform="translate(5,62.600000858306885)" style="dominant-baseline:middle;font-size:10.2px" id="text-entity-CATEGORY-4496cc9e-da1f-5994-ab05-87aa395a773d-attr-2-type" x="0" y="0" class="er entityLabel">string</text><rect width="54.8" height="24.4" x="37.2" y="50.4" class="er attributeBoxEven"/><text transform="translate(42.20000076293945,62.600000858306885)" style="dominant-baseline:middle;font-size:10.2px" id="text-entity-CATEGORY-4496cc9e-da1f-5994-ab05-87aa395a773d-attr-2-name" x="0" y="0" class="er entityLabel">name</text><rect width="21.2" height="24.4" x="92" y="50.4" class="er attributeBoxEven"/><rect width="37.2" height="24.4" x="0" y="74.8" class="er attributeBoxOdd"/><text transform="translate(5,87.00000143051147)" style="dominant-baseline:middle;font-size:10.2px" id="text-entity-CATEGORY-4496cc9e-da1f-5994-ab05-87aa395a773d-attr-3-type" x="0" y="0" class="er entityLabel">string</text><rect width="54.8" height="24.4" x="37.2" y="74.8" class="er attributeBoxOdd"/><text transform="translate(42.20000076293945,87.00000143051147)" style="dominant-baseline:middle;font-size:10.2px" id="text-entity-CATEGORY-4496cc9e-da1f-5994-ab05-87aa395a773d-attr-3-name" x="0" y="0" class="er entityLabel">slug</text><rect width="21.2" height="24.4" x="92" y="74.8" class="er attributeBoxOdd"/><rect width="37.2" height="24.4" x="0" y="99.2" class="er attributeBoxEven"/><text transform="translate(5,111.40000200271606)" style="dominant-baseline:middle;font-size:10.2px" id="text-entity-CATEGORY-4496cc9e-da1f-5994-ab05-87aa395a773d-attr-4-type" x="0" y="0" class="er entityLabel">int</text><rect width="54.8" height="24.4" x="37.2" y="99.2" class="er attributeBoxEven"/><text transform="translate(42.20000076293945,111.40000200271606)" style="dominant-baseline:middle;font-size:10.2px" id="text-entity-CATEGORY-4496cc9e-da1f-5994-ab05-87aa395a773d-attr-4-name" x="0" y="0" class="er entityLabel">parent_id</text><rect width="21.2" height="24.4" x="92" y="99.2" class="er attributeBoxEven"/></g><g id="entity-questionsanswers-0cc0b71f-e639-5fda-9a6b-e31d2090abf6" transform="translate(494.5999984741211,1402.400001525879 )"><rect width="128.4" height="148" x="0" y="0" class="er entityBox"/><text transform="translate(64.20000076293945,13)" style="dominant-baseline:middle;text-anchor:middle;font-size:12px" id="text-entity-questionsanswers-0cc0b71f-e639-5fda-9a6b-e31d2090abf6" x="0" y="0" class="er entityLabel">questions_answers</text><rect width="40.667" height="24.4" x="0" y="26" class="er attributeBoxOdd"/><text transform="translate(5,38.200000286102295)" style="dominant-baseline:middle;font-size:10.2px" id="text-entity-questionsanswers-0cc0b71f-e639-5fda-9a6b-e31d2090abf6-attr-1-type" x="0" y="0" class="er entityLabel">int</text><rect width="63.067" height="24.4" x="40.667" y="26" class="er attributeBoxOdd"/><text transform="translate(45.666666984558105,38.200000286102295)" style="dominant-baseline:middle;font-size:10.2px" id="text-entity-questionsanswers-0cc0b71f-e639-5fda-9a6b-e31d2090abf6-attr-1-name" x="0" y="0" class="er entityLabel">id</text><rect width="24.667" height="24.4" x="103.733" y="26" class="er attributeBoxOdd"/><text transform="translate(108.73333549499512,38.200000286102295)" style="dominant-baseline:middle;font-size:10.2px" id="text-entity-questionsanswers-0cc0b71f-e639-5fda-9a6b-e31d2090abf6-attr-1-key" x="0" y="0" class="er entityLabel">PK</text><rect width="40.667" height="24.4" x="0" y="50.4" class="er attributeBoxEven"/><text transform="translate(5,62.600000858306885)" style="dominant-baseline:middle;font-size:10.2px" id="text-entity-questionsanswers-0cc0b71f-e639-5fda-9a6b-e31d2090abf6-attr-2-type" x="0" y="0" class="er entityLabel">string</text><rect width="63.067" height="24.4" x="40.667" y="50.4" class="er attributeBoxEven"/><text transform="translate(45.666666984558105,62.600000858306885)" style="dominant-baseline:middle;font-size:10.2px" id="text-entity-questionsanswers-0cc0b71f-e639-5fda-9a6b-e31d2090abf6-attr-2-name" x="0" y="0" class="er entityLabel">content</text><rect width="24.667" height="24.4" x="103.733" y="50.4" class="er attributeBoxEven"/><rect width="40.667" height="24.4" x="0" y="74.8" class="er attributeBoxOdd"/><text transform="translate(5,87.00000143051147)" style="dominant-baseline:middle;font-size:10.2px" id="text-entity-questionsanswers-0cc0b71f-e639-5fda-9a6b-e31d2090abf6-attr-3-type" x="0" y="0" class="er entityLabel">int</text><rect width="63.067" height="24.4" x="40.667" y="74.8" class="er attributeBoxOdd"/><text transform="translate(45.666666984558105,87.00000143051147)" style="dominant-baseline:middle;font-size:10.2px" id="text-entity-questionsanswers-0cc0b71f-e639-5fda-9a6b-e31d2090abf6-attr-3-name" x="0" y="0" class="er entityLabel">student_id</text><rect width="24.667" height="24.4" x="103.733" y="74.8" class="er attributeBoxOdd"/><rect width="40.667" height="24.4" x="0" y="99.2" class="er attributeBoxEven"/><text transform="translate(5,111.40000200271606)" style="dominant-baseline:middle;font-size:10.2px" id="text-entity-questionsanswers-0cc0b71f-e639-5fda-9a6b-e31d2090abf6-attr-4-type" x="0" y="0" class="er entityLabel">int</text><rect width="63.067" height="24.4" x="40.667" y="99.2" class="er attributeBoxEven"/><text transform="translate(45.666666984558105,111.40000200271606)" style="dominant-baseline:middle;font-size:10.2px" id="text-entity-questionsanswers-0cc0b71f-e639-5fda-9a6b-e31d2090abf6-attr-4-name" x="0" y="0" class="er entityLabel">lecture_id</text><rect width="24.667" height="24.4" x="103.733" y="99.2" class="er attributeBoxEven"/><rect width="40.667" height="24.4" x="0" y="123.6" class="er attributeBoxOdd"/><text transform="translate(5,135.80000257492065)" style="dominant-baseline:middle;font-size:10.2px" id="text-entity-questionsanswers-0cc0b71f-e639-5fda-9a6b-e31d2090abf6-attr-5-type" x="0" y="0" class="er entityLabel">int</text><rect width="63.067" height="24.4" x="40.667" y="123.6" class="er attributeBoxOdd"/><text transform="translate(45.666666984558105,135.80000257492065)" style="dominant-baseline:middle;font-size:10.2px" id="text-entity-questionsanswers-0cc0b71f-e639-5fda-9a6b-e31d2090abf6-attr-5-name" x="0" y="0" class="er entityLabel">parent_id</text><rect width="24.667" height="24.4" x="103.733" y="123.6" class="er attributeBoxOdd"/></g><rect width="47.2" height="16" x="271" y="576" class="er relationshipLabelBox"/><text style="text-anchor:middle;dominant-baseline:middle;font-size:12px" id="rel191" x="294.6" y="584" class="er relationshipLabel">enrolls in</text><rect width="99.2" height="16" x="-8.925" y="613.418" class="er relationshipLabelBox"/><text style="text-anchor:middle;dominant-baseline:middle;font-size:12px" id="rel192" x="40.675" y="621.418" class="er relationshipLabel">writes a review on</text><rect width="41.6" height="16" x="273.8" y="878.9" class="er relationshipLabelBox"/><text style="text-anchor:middle;dominant-baseline:middle;font-size:12px" id="rel193" x="294.6" y="886.9" class="er relationshipLabel">includes</text><rect width="44" height="16" x="272.6" y="1114.7" class="er relationshipLabelBox"/><text style="text-anchor:middle;dominant-baseline:middle;font-size:12px" id="rel194" x="294.6" y="1122.7" class="er relationshipLabel">contains</text><rect width="17.6" height="16" x="156.19" y="848.254" class="er relationshipLabelBox"/><text style="text-anchor:middle;dominant-baseline:middle;font-size:12px" id="rel195" x="164.99" y="856.254" class="er relationshipLabel">has</text><rect width="76" height="16" x="415.062" y="837.952" class="er relationshipLabelBox"/><text style="text-anchor:middle;dominant-baseline:middle;font-size:12px" id="rel196" x="453.062" y="845.952" class="er relationshipLabel">categorized in</text><rect width="80" height="16" x="623.567" y="996.8" class="er relationshipLabelBox"/><text style="text-anchor:middle;dominant-baseline:middle;font-size:12px" id="rel197" x="663.567" y="1004.8" class="er relationshipLabel">subcategorized</text><rect width="22.4" height="16" x="763.2" y="813.782" class="er relationshipLabelBox"/><text style="text-anchor:middle;dominant-baseline:middle;font-size:12px" id="rel198" x="774.4" y="821.782" class="er relationshipLabel">asks</text><rect width="17.6" height="16" x="369.715" y="1381.913" class="er relationshipLabelBox"/><text style="text-anchor:middle;dominant-baseline:middle;font-size:12px" id="rel199" x="378.515" y="1389.913" class="er relationshipLabel">has</text></svg>